<svg width="31" height="30" viewBox="0 0 31 30" fill="none" xmlns="http://www.w3.org/2000/svg">
<path d="M13 22.5C12.3096 22.5 11.75 21.9404 11.75 21.25L11.75 12.5C11.75 11.8096 12.3096 11.25 13 11.25C13.6904 11.25 14.25 11.8096 14.25 12.5L14.25 21.25C14.25 21.9404 13.6904 22.5 13 22.5Z" fill="#1D201F"/>
<path d="M16.75 21.25C16.75 21.9404 17.3096 22.5 18 22.5C18.6904 22.5 19.25 21.9404 19.25 21.25V12.5C19.25 11.8096 18.6904 11.25 18 11.25C17.3096 11.25 16.75 11.8096 16.75 12.5V21.25Z" fill="#1D201F"/>
<path fill-rule="evenodd" clip-rule="evenodd" d="M10.6912 4.48529L9.75 6.25H5.5C4.80964 6.25 4.25 6.80964 4.25 7.5C4.25 8.19036 4.80964 8.75 5.5 8.75H5.57079L6.59587 26.3228C6.63443 26.9837 7.18167 27.5 7.84375 27.5H23.1562C23.8183 27.5 24.3656 26.9837 24.4041 26.3228L25.4292 8.75H25.5C26.1904 8.75 26.75 8.19036 26.75 7.5C26.75 6.80964 26.1904 6.25 25.5 6.25H21.25L20.3088 4.48529C19.6571 3.26331 18.3849 2.5 17 2.5H14C12.6151 2.5 11.3429 3.26331 10.6912 4.48529ZM14 5C13.5384 5 13.1143 5.25443 12.8971 5.66176L12.5833 6.25H18.4167L18.1029 5.66176C17.8857 5.25443 17.4616 5 17 5H14ZM22.925 8.75H8.07504L9.02296 25H21.977L22.925 8.75Z" fill="#1D201F"/>
</svg>
